<svg
    xmlns="http://www.w3.org/2000/svg"
    width="64"
    height="64"
    viewBox="0 0 64 64"
    fill="none"
>

    <rect width="64" height="64" rx="8" fill="#E3F2FD"/>

    <circle cx="20" cy="20" r="8" stroke="#4CAF50" stroke-width="3" fill="none" />
    <line x1="25" y1="25" x2="32" y2="32" stroke="#4CAF50" stroke-width="3" stroke-linecap="round" />

    <path
        d="M32 34C28.6863 34 26 31.3137 26 28C26 24.6863 28.6863 22 32 22C35.3137 22 38 24.6863 38 28C38 31.3137 35.3137 34 32 34Z"
        fill="#000000"
    />
    <path
        d="M30 40C30 38.3431 31.3431 37 33 37H35C36.6569 37 38 38.3431 38 40V42H30V40Z"
        fill="#000000"
    />
    <path
        d="M32 48L28 44H36L32 48Z"
        fill="#1E88E5"
    />
    <rect x="30" y="50" width="4" height="6" fill="#1E88E5"/>

</svg>

